<mxfile host="app.diagrams.net" modified="2023-03-14T10:40:00.722Z" agent="5.0 (Macintosh; Intel Mac OS X 10_14_6) AppleWebKit/605.1.15 (KHTML, like Gecko) EdgiOS/97 Version/13.0.3 Safari/605.1.15" etag="WHRNom8AXiw-33yZ1Y-i" version="21.0.6" type="github">
  <diagram name="第 1 页" id="ZKQgenZqyvktRb8qP5nn">
    <mxGraphModel dx="594" dy="530" grid="1" gridSize="10" guides="1" tooltips="1" connect="1" arrows="1" fold="1" page="1" pageScale="1" pageWidth="827" pageHeight="1169" math="0" shadow="0">
      <root>
        <mxCell id="0" />
        <mxCell id="1" parent="0" />
        <mxCell id="bRnCnBUYUYHnlaFGCwYw-6" style="edgeStyle=orthogonalEdgeStyle;rounded=0;orthogonalLoop=1;jettySize=auto;html=1;entryX=0.5;entryY=0;entryDx=0;entryDy=0;endArrow=none;endFill=0;" edge="1" parent="1" source="bRnCnBUYUYHnlaFGCwYw-1" target="bRnCnBUYUYHnlaFGCwYw-3">
          <mxGeometry relative="1" as="geometry">
            <Array as="points">
              <mxPoint x="380" y="160" />
              <mxPoint x="160" y="160" />
            </Array>
          </mxGeometry>
        </mxCell>
        <mxCell id="bRnCnBUYUYHnlaFGCwYw-7" style="edgeStyle=orthogonalEdgeStyle;rounded=0;orthogonalLoop=1;jettySize=auto;html=1;entryX=0.5;entryY=0;entryDx=0;entryDy=0;endArrow=none;endFill=0;" edge="1" parent="1" source="bRnCnBUYUYHnlaFGCwYw-1" target="bRnCnBUYUYHnlaFGCwYw-2">
          <mxGeometry relative="1" as="geometry">
            <Array as="points">
              <mxPoint x="380" y="160" />
              <mxPoint x="310" y="160" />
            </Array>
          </mxGeometry>
        </mxCell>
        <mxCell id="bRnCnBUYUYHnlaFGCwYw-8" style="edgeStyle=orthogonalEdgeStyle;rounded=0;orthogonalLoop=1;jettySize=auto;html=1;entryX=0.5;entryY=0;entryDx=0;entryDy=0;endArrow=none;endFill=0;" edge="1" parent="1" source="bRnCnBUYUYHnlaFGCwYw-1" target="bRnCnBUYUYHnlaFGCwYw-4">
          <mxGeometry relative="1" as="geometry">
            <Array as="points">
              <mxPoint x="380" y="160" />
              <mxPoint x="464" y="160" />
            </Array>
          </mxGeometry>
        </mxCell>
        <mxCell id="bRnCnBUYUYHnlaFGCwYw-9" style="edgeStyle=orthogonalEdgeStyle;rounded=0;orthogonalLoop=1;jettySize=auto;html=1;endArrow=none;endFill=0;entryX=0.5;entryY=0;entryDx=0;entryDy=0;" edge="1" parent="1" source="bRnCnBUYUYHnlaFGCwYw-1" target="bRnCnBUYUYHnlaFGCwYw-5">
          <mxGeometry relative="1" as="geometry">
            <Array as="points">
              <mxPoint x="380" y="160" />
              <mxPoint x="630" y="160" />
            </Array>
          </mxGeometry>
        </mxCell>
        <mxCell id="bRnCnBUYUYHnlaFGCwYw-1" value="&lt;font style=&quot;font-size: 14px;&quot;&gt;学生课程管理系统&lt;/font&gt;" style="rounded=0;whiteSpace=wrap;html=1;" vertex="1" parent="1">
          <mxGeometry x="310" y="90" width="140" height="50" as="geometry" />
        </mxCell>
        <mxCell id="bRnCnBUYUYHnlaFGCwYw-23" style="edgeStyle=orthogonalEdgeStyle;rounded=0;orthogonalLoop=1;jettySize=auto;html=1;endArrow=none;endFill=0;" edge="1" parent="1" source="bRnCnBUYUYHnlaFGCwYw-2" target="bRnCnBUYUYHnlaFGCwYw-13">
          <mxGeometry relative="1" as="geometry">
            <Array as="points">
              <mxPoint x="310" y="230" />
              <mxPoint x="265" y="230" />
            </Array>
          </mxGeometry>
        </mxCell>
        <mxCell id="bRnCnBUYUYHnlaFGCwYw-24" style="edgeStyle=orthogonalEdgeStyle;rounded=0;orthogonalLoop=1;jettySize=auto;html=1;entryX=0.5;entryY=0;entryDx=0;entryDy=0;endArrow=none;endFill=0;" edge="1" parent="1" source="bRnCnBUYUYHnlaFGCwYw-2" target="bRnCnBUYUYHnlaFGCwYw-14">
          <mxGeometry relative="1" as="geometry" />
        </mxCell>
        <mxCell id="bRnCnBUYUYHnlaFGCwYw-25" style="edgeStyle=orthogonalEdgeStyle;rounded=0;orthogonalLoop=1;jettySize=auto;html=1;entryX=0.5;entryY=0;entryDx=0;entryDy=0;endArrow=none;endFill=0;" edge="1" parent="1" source="bRnCnBUYUYHnlaFGCwYw-2" target="bRnCnBUYUYHnlaFGCwYw-15">
          <mxGeometry relative="1" as="geometry">
            <Array as="points">
              <mxPoint x="310" y="230" />
              <mxPoint x="355" y="230" />
            </Array>
          </mxGeometry>
        </mxCell>
        <mxCell id="bRnCnBUYUYHnlaFGCwYw-2" value="&lt;font style=&quot;font-size: 14px;&quot;&gt;学生管理&lt;/font&gt;" style="rounded=0;whiteSpace=wrap;html=1;" vertex="1" parent="1">
          <mxGeometry x="260" y="190" width="100" height="30" as="geometry" />
        </mxCell>
        <mxCell id="bRnCnBUYUYHnlaFGCwYw-20" style="edgeStyle=orthogonalEdgeStyle;rounded=0;orthogonalLoop=1;jettySize=auto;html=1;entryX=0.5;entryY=0;entryDx=0;entryDy=0;endArrow=none;endFill=0;" edge="1" parent="1" source="bRnCnBUYUYHnlaFGCwYw-3" target="bRnCnBUYUYHnlaFGCwYw-10">
          <mxGeometry relative="1" as="geometry">
            <Array as="points">
              <mxPoint x="160" y="230" />
              <mxPoint x="115" y="230" />
            </Array>
          </mxGeometry>
        </mxCell>
        <mxCell id="bRnCnBUYUYHnlaFGCwYw-21" style="edgeStyle=orthogonalEdgeStyle;rounded=0;orthogonalLoop=1;jettySize=auto;html=1;entryX=0.5;entryY=0;entryDx=0;entryDy=0;endArrow=none;endFill=0;" edge="1" parent="1" source="bRnCnBUYUYHnlaFGCwYw-3" target="bRnCnBUYUYHnlaFGCwYw-11">
          <mxGeometry relative="1" as="geometry" />
        </mxCell>
        <mxCell id="bRnCnBUYUYHnlaFGCwYw-22" style="edgeStyle=orthogonalEdgeStyle;rounded=0;orthogonalLoop=1;jettySize=auto;html=1;entryX=0.5;entryY=0;entryDx=0;entryDy=0;endArrow=none;endFill=0;" edge="1" parent="1" source="bRnCnBUYUYHnlaFGCwYw-3" target="bRnCnBUYUYHnlaFGCwYw-12">
          <mxGeometry relative="1" as="geometry">
            <Array as="points">
              <mxPoint x="160" y="230" />
              <mxPoint x="205" y="230" />
            </Array>
          </mxGeometry>
        </mxCell>
        <mxCell id="bRnCnBUYUYHnlaFGCwYw-3" value="&lt;span style=&quot;font-size: 14px;&quot;&gt;课程管理&lt;/span&gt;" style="rounded=0;whiteSpace=wrap;html=1;" vertex="1" parent="1">
          <mxGeometry x="110" y="190" width="100" height="30" as="geometry" />
        </mxCell>
        <mxCell id="bRnCnBUYUYHnlaFGCwYw-26" style="edgeStyle=orthogonalEdgeStyle;rounded=0;orthogonalLoop=1;jettySize=auto;html=1;endArrow=none;endFill=0;" edge="1" parent="1" source="bRnCnBUYUYHnlaFGCwYw-4" target="bRnCnBUYUYHnlaFGCwYw-16">
          <mxGeometry relative="1" as="geometry">
            <Array as="points">
              <mxPoint x="464" y="230" />
              <mxPoint x="429" y="230" />
            </Array>
          </mxGeometry>
        </mxCell>
        <mxCell id="bRnCnBUYUYHnlaFGCwYw-27" style="edgeStyle=orthogonalEdgeStyle;rounded=0;orthogonalLoop=1;jettySize=auto;html=1;entryX=0.5;entryY=0;entryDx=0;entryDy=0;endArrow=none;endFill=0;" edge="1" parent="1" source="bRnCnBUYUYHnlaFGCwYw-4" target="bRnCnBUYUYHnlaFGCwYw-17">
          <mxGeometry relative="1" as="geometry">
            <Array as="points">
              <mxPoint x="464" y="230" />
              <mxPoint x="499" y="230" />
            </Array>
          </mxGeometry>
        </mxCell>
        <mxCell id="bRnCnBUYUYHnlaFGCwYw-4" value="&lt;span style=&quot;font-size: 14px;&quot;&gt;选课管理&lt;/span&gt;" style="rounded=0;whiteSpace=wrap;html=1;" vertex="1" parent="1">
          <mxGeometry x="414" y="190" width="100" height="30" as="geometry" />
        </mxCell>
        <mxCell id="bRnCnBUYUYHnlaFGCwYw-28" style="edgeStyle=orthogonalEdgeStyle;rounded=0;orthogonalLoop=1;jettySize=auto;html=1;endArrow=none;endFill=0;" edge="1" parent="1" source="bRnCnBUYUYHnlaFGCwYw-5" target="bRnCnBUYUYHnlaFGCwYw-18">
          <mxGeometry relative="1" as="geometry">
            <Array as="points">
              <mxPoint x="630" y="230" />
              <mxPoint x="595" y="230" />
            </Array>
          </mxGeometry>
        </mxCell>
        <mxCell id="bRnCnBUYUYHnlaFGCwYw-29" style="edgeStyle=orthogonalEdgeStyle;rounded=0;orthogonalLoop=1;jettySize=auto;html=1;entryX=0.5;entryY=0;entryDx=0;entryDy=0;endArrow=none;endFill=0;" edge="1" parent="1" source="bRnCnBUYUYHnlaFGCwYw-5" target="bRnCnBUYUYHnlaFGCwYw-19">
          <mxGeometry relative="1" as="geometry">
            <Array as="points">
              <mxPoint x="630" y="230" />
              <mxPoint x="665" y="230" />
            </Array>
          </mxGeometry>
        </mxCell>
        <mxCell id="bRnCnBUYUYHnlaFGCwYw-5" value="&lt;span style=&quot;font-size: 14px;&quot;&gt;成绩管理&lt;/span&gt;" style="rounded=0;whiteSpace=wrap;html=1;" vertex="1" parent="1">
          <mxGeometry x="580" y="190" width="100" height="30" as="geometry" />
        </mxCell>
        <mxCell id="bRnCnBUYUYHnlaFGCwYw-10" value="查询课程" style="rounded=0;whiteSpace=wrap;html=1;" vertex="1" parent="1">
          <mxGeometry x="100" y="250" width="30" height="110" as="geometry" />
        </mxCell>
        <mxCell id="bRnCnBUYUYHnlaFGCwYw-11" value="添加课程" style="rounded=0;whiteSpace=wrap;html=1;" vertex="1" parent="1">
          <mxGeometry x="145" y="250" width="30" height="110" as="geometry" />
        </mxCell>
        <mxCell id="bRnCnBUYUYHnlaFGCwYw-12" value="修改课程信息" style="rounded=0;whiteSpace=wrap;html=1;" vertex="1" parent="1">
          <mxGeometry x="190" y="250" width="30" height="110" as="geometry" />
        </mxCell>
        <mxCell id="bRnCnBUYUYHnlaFGCwYw-13" value="添加学生" style="rounded=0;whiteSpace=wrap;html=1;" vertex="1" parent="1">
          <mxGeometry x="250" y="250" width="30" height="110" as="geometry" />
        </mxCell>
        <mxCell id="bRnCnBUYUYHnlaFGCwYw-14" value="管理学生信息" style="rounded=0;whiteSpace=wrap;html=1;" vertex="1" parent="1">
          <mxGeometry x="295" y="250" width="30" height="110" as="geometry" />
        </mxCell>
        <mxCell id="bRnCnBUYUYHnlaFGCwYw-15" value="管理学生课程" style="rounded=0;whiteSpace=wrap;html=1;" vertex="1" parent="1">
          <mxGeometry x="340" y="250" width="30" height="110" as="geometry" />
        </mxCell>
        <mxCell id="bRnCnBUYUYHnlaFGCwYw-16" value="选择课程" style="rounded=0;whiteSpace=wrap;html=1;" vertex="1" parent="1">
          <mxGeometry x="414" y="250" width="30" height="110" as="geometry" />
        </mxCell>
        <mxCell id="bRnCnBUYUYHnlaFGCwYw-17" value="退选课程" style="rounded=0;whiteSpace=wrap;html=1;" vertex="1" parent="1">
          <mxGeometry x="484" y="250" width="30" height="110" as="geometry" />
        </mxCell>
        <mxCell id="bRnCnBUYUYHnlaFGCwYw-18" value="录入成绩" style="rounded=0;whiteSpace=wrap;html=1;" vertex="1" parent="1">
          <mxGeometry x="580" y="250" width="30" height="110" as="geometry" />
        </mxCell>
        <mxCell id="bRnCnBUYUYHnlaFGCwYw-19" value="修改成绩" style="rounded=0;whiteSpace=wrap;html=1;" vertex="1" parent="1">
          <mxGeometry x="650" y="250" width="30" height="110" as="geometry" />
        </mxCell>
        <mxCell id="bRnCnBUYUYHnlaFGCwYw-34" style="edgeStyle=orthogonalEdgeStyle;rounded=0;orthogonalLoop=1;jettySize=auto;html=1;entryX=0;entryY=0.5;entryDx=0;entryDy=0;" edge="1" parent="1" source="bRnCnBUYUYHnlaFGCwYw-30" target="bRnCnBUYUYHnlaFGCwYw-33">
          <mxGeometry relative="1" as="geometry" />
        </mxCell>
        <mxCell id="bRnCnBUYUYHnlaFGCwYw-49" style="rounded=0;orthogonalLoop=1;jettySize=auto;html=1;startArrow=classic;startFill=1;" edge="1" parent="1">
          <mxGeometry relative="1" as="geometry">
            <mxPoint x="210" y="540" as="targetPoint" />
            <mxPoint x="150" y="460" as="sourcePoint" />
          </mxGeometry>
        </mxCell>
        <mxCell id="bRnCnBUYUYHnlaFGCwYw-30" value="管理员" style="rounded=0;whiteSpace=wrap;html=1;" vertex="1" parent="1">
          <mxGeometry x="100" y="445" width="50" height="30" as="geometry" />
        </mxCell>
        <mxCell id="bRnCnBUYUYHnlaFGCwYw-42" style="rounded=0;orthogonalLoop=1;jettySize=auto;html=1;" edge="1" parent="1" source="bRnCnBUYUYHnlaFGCwYw-33">
          <mxGeometry relative="1" as="geometry">
            <mxPoint x="210" y="540" as="targetPoint" />
          </mxGeometry>
        </mxCell>
        <mxCell id="bRnCnBUYUYHnlaFGCwYw-33" value="整合为课程表" style="ellipse;whiteSpace=wrap;html=1;aspect=fixed;" vertex="1" parent="1">
          <mxGeometry x="250" y="425" width="70" height="70" as="geometry" />
        </mxCell>
        <mxCell id="bRnCnBUYUYHnlaFGCwYw-35" value="添加课程" style="text;html=1;align=center;verticalAlign=middle;resizable=0;points=[];autosize=1;strokeColor=none;fillColor=none;" vertex="1" parent="1">
          <mxGeometry x="170" y="430" width="70" height="30" as="geometry" />
        </mxCell>
        <mxCell id="bRnCnBUYUYHnlaFGCwYw-37" value="" style="endArrow=none;html=1;rounded=0;" edge="1" parent="1">
          <mxGeometry width="50" height="50" relative="1" as="geometry">
            <mxPoint x="190" y="540" as="sourcePoint" />
            <mxPoint x="240" y="540" as="targetPoint" />
            <Array as="points">
              <mxPoint x="210" y="540" />
            </Array>
          </mxGeometry>
        </mxCell>
        <mxCell id="bRnCnBUYUYHnlaFGCwYw-39" value="课程表" style="text;html=1;align=center;verticalAlign=middle;resizable=0;points=[];autosize=1;strokeColor=none;fillColor=none;" vertex="1" parent="1">
          <mxGeometry x="180" y="540" width="60" height="30" as="geometry" />
        </mxCell>
        <mxCell id="bRnCnBUYUYHnlaFGCwYw-46" style="rounded=0;orthogonalLoop=1;jettySize=auto;html=1;entryX=1;entryY=0.5;entryDx=0;entryDy=0;" edge="1" parent="1" target="bRnCnBUYUYHnlaFGCwYw-40">
          <mxGeometry relative="1" as="geometry">
            <mxPoint x="210" y="540" as="sourcePoint" />
          </mxGeometry>
        </mxCell>
        <mxCell id="bRnCnBUYUYHnlaFGCwYw-40" value="学生" style="rounded=0;whiteSpace=wrap;html=1;" vertex="1" parent="1">
          <mxGeometry x="100" y="500" width="50" height="30" as="geometry" />
        </mxCell>
        <mxCell id="bRnCnBUYUYHnlaFGCwYw-47" value="查询课表" style="text;html=1;align=center;verticalAlign=middle;resizable=0;points=[];autosize=1;strokeColor=none;fillColor=none;" vertex="1" parent="1">
          <mxGeometry x="125" y="530" width="70" height="30" as="geometry" />
        </mxCell>
        <mxCell id="bRnCnBUYUYHnlaFGCwYw-48" value="存为数据" style="text;html=1;align=center;verticalAlign=middle;resizable=0;points=[];autosize=1;strokeColor=none;fillColor=none;" vertex="1" parent="1">
          <mxGeometry x="225" y="510" width="70" height="30" as="geometry" />
        </mxCell>
        <mxCell id="bRnCnBUYUYHnlaFGCwYw-50" value="&lt;font style=&quot;font-size: 10px;&quot;&gt;查询和更新&lt;br&gt;课程信息&lt;/font&gt;" style="text;html=1;align=center;verticalAlign=middle;resizable=0;points=[];autosize=1;strokeColor=none;fillColor=none;" vertex="1" parent="1">
          <mxGeometry x="170" y="465" width="70" height="40" as="geometry" />
        </mxCell>
        <mxCell id="bRnCnBUYUYHnlaFGCwYw-58" style="rounded=0;orthogonalLoop=1;jettySize=auto;html=1;entryX=0;entryY=0.5;entryDx=0;entryDy=0;" edge="1" parent="1" source="bRnCnBUYUYHnlaFGCwYw-51" target="bRnCnBUYUYHnlaFGCwYw-52">
          <mxGeometry relative="1" as="geometry" />
        </mxCell>
        <mxCell id="bRnCnBUYUYHnlaFGCwYw-59" style="rounded=0;orthogonalLoop=1;jettySize=auto;html=1;entryX=0;entryY=0.5;entryDx=0;entryDy=0;" edge="1" parent="1" source="bRnCnBUYUYHnlaFGCwYw-51" target="bRnCnBUYUYHnlaFGCwYw-53">
          <mxGeometry relative="1" as="geometry" />
        </mxCell>
        <mxCell id="bRnCnBUYUYHnlaFGCwYw-60" style="rounded=0;orthogonalLoop=1;jettySize=auto;html=1;entryX=0;entryY=0.5;entryDx=0;entryDy=0;" edge="1" parent="1" source="bRnCnBUYUYHnlaFGCwYw-51" target="bRnCnBUYUYHnlaFGCwYw-55">
          <mxGeometry relative="1" as="geometry" />
        </mxCell>
        <mxCell id="bRnCnBUYUYHnlaFGCwYw-51" value="管理员" style="shape=umlActor;verticalLabelPosition=bottom;verticalAlign=top;html=1;outlineConnect=0;" vertex="1" parent="1">
          <mxGeometry x="484" y="425" width="30" height="60" as="geometry" />
        </mxCell>
        <mxCell id="bRnCnBUYUYHnlaFGCwYw-52" value="查询课程" style="ellipse;whiteSpace=wrap;html=1;" vertex="1" parent="1">
          <mxGeometry x="600" y="425" width="80" height="40" as="geometry" />
        </mxCell>
        <mxCell id="bRnCnBUYUYHnlaFGCwYw-53" value="添加课程" style="ellipse;whiteSpace=wrap;html=1;" vertex="1" parent="1">
          <mxGeometry x="600" y="510" width="80" height="40" as="geometry" />
        </mxCell>
        <mxCell id="bRnCnBUYUYHnlaFGCwYw-55" value="修改课程信息" style="ellipse;whiteSpace=wrap;html=1;" vertex="1" parent="1">
          <mxGeometry x="600" y="590" width="80" height="40" as="geometry" />
        </mxCell>
        <mxCell id="bRnCnBUYUYHnlaFGCwYw-61" style="rounded=0;orthogonalLoop=1;jettySize=auto;html=1;" edge="1" parent="1" source="bRnCnBUYUYHnlaFGCwYw-57" target="bRnCnBUYUYHnlaFGCwYw-52">
          <mxGeometry relative="1" as="geometry" />
        </mxCell>
        <mxCell id="bRnCnBUYUYHnlaFGCwYw-57" value="学生" style="shape=umlActor;verticalLabelPosition=bottom;verticalAlign=top;html=1;outlineConnect=0;" vertex="1" parent="1">
          <mxGeometry x="484" y="554" width="30" height="60" as="geometry" />
        </mxCell>
      </root>
    </mxGraphModel>
  </diagram>
</mxfile>
